<svg width="58" height="88" viewBox="0 0 58 88" fill="none" xmlns="http://www.w3.org/2000/svg">
<rect width="58" height="88" rx="29" fill="#F9F8F8"/>
<rect width="58" height="58" rx="29" fill="#BCD5FC"/>
<path d="M25.76 39C25.72 38.76 25.7 38.5133 25.7 38.26C25.7 37.3933 25.8467 36.62 26.14 35.94C26.4467 35.2467 26.84 34.62 27.32 34.06C27.8 33.4867 28.3067 32.96 28.84 32.48C29.3867 31.9867 29.8933 31.52 30.36 31.08C30.84 30.6267 31.2333 30.1733 31.54 29.72C31.8467 29.2667 32 28.7933 32 28.3C32 27.74 31.7933 27.28 31.38 26.92C30.9667 26.5467 30.4333 26.36 29.78 26.36C29.22 26.36 28.7067 26.4733 28.24 26.7C27.7867 26.9133 27.36 27.2067 26.96 27.58L25.96 26.36C26.4933 25.88 27.08 25.4933 27.72 25.2C28.3733 24.9067 29.1267 24.76 29.98 24.76C30.7667 24.76 31.4533 24.9133 32.04 25.22C32.6267 25.5133 33.08 25.92 33.4 26.44C33.7333 26.96 33.9 27.54 33.9 28.18C33.9 28.82 33.76 29.4133 33.48 29.96C33.2 30.5067 32.84 31.02 32.4 31.5C31.96 31.98 31.4867 32.4467 30.98 32.9C30.4733 33.34 29.9867 33.7933 29.52 34.26C29.0533 34.7267 28.6533 35.2133 28.32 35.72C28 36.2267 27.8 36.7733 27.72 37.36H33.88V39H25.76Z" fill="white"/>
</svg>
