<svg width="58" height="88" viewBox="0 0 58 88" fill="none" xmlns="http://www.w3.org/2000/svg">
<rect width="58" height="88" rx="29" fill="#F9F8F8"/>
<rect width="58" height="58" rx="29" fill="#FAC2CF"/>
<path d="M29.18 39.24C28.3133 39.24 27.56 39.1267 26.92 38.9C26.28 38.66 25.7333 38.3733 25.28 38.04L26.1 36.54C26.4733 36.82 26.9067 37.0667 27.4 37.28C27.8933 37.4933 28.4933 37.6 29.2 37.6C30.08 37.6 30.7733 37.3667 31.28 36.9C31.8 36.4333 32.06 35.8533 32.06 35.16C32.06 34.6667 31.9267 34.22 31.66 33.82C31.3933 33.4067 30.98 33.0733 30.42 32.82C29.8733 32.5667 29.16 32.44 28.28 32.44H27.16V30.98H28.2C28.9867 30.98 29.6333 30.86 30.14 30.62C30.66 30.38 31.0467 30.0667 31.3 29.68C31.5533 29.2933 31.68 28.8867 31.68 28.46C31.68 27.8333 31.44 27.3267 30.96 26.94C30.4933 26.5533 29.9133 26.36 29.22 26.36C28.5933 26.36 28.0333 26.4667 27.54 26.68C27.06 26.88 26.6667 27.1067 26.36 27.36L25.62 25.94C26.02 25.6733 26.5333 25.4133 27.16 25.16C27.7867 24.8933 28.52 24.76 29.36 24.76C30.24 24.76 30.9867 24.92 31.6 25.24C32.2133 25.56 32.68 25.9867 33 26.52C33.3333 27.04 33.5 27.6067 33.5 28.22C33.5 29.0067 33.3 29.6667 32.9 30.2C32.5133 30.7333 31.96 31.1733 31.24 31.52C32.08 31.84 32.7333 32.3133 33.2 32.94C33.68 33.5533 33.92 34.2733 33.92 35.1C33.92 35.7933 33.7467 36.46 33.4 37.1C33.0667 37.7267 32.5467 38.24 31.84 38.64C31.1467 39.04 30.26 39.24 29.18 39.24Z" fill="white"/>
</svg>
